<?xml version="1.0" standalone="no"?>
<!DOCTYPE svg PUBLIC "-//W3C//DTD SVG 20010904//EN"
 "http://www.w3.org/TR/2001/REC-SVG-20010904/DTD/svg10.dtd">
<svg version="1.0" xmlns="http://www.w3.org/2000/svg"
 width="686.000000pt" height="686.000000pt" viewBox="0 0 686.000000 686.000000"
 preserveAspectRatio="xMidYMid meet">
<metadata>
Created by potrace 1.11, written by Peter Selinger 2001-2013
</metadata>
<g transform="translate(0.000000,686.000000) scale(0.100000,-0.100000)"
fill="#000000" stroke="none">
<path d="M2647 6544 c-1 -1 -22 -5 -47 -9 -50 -8 -145 -45 -199 -79 -52 -33
-137 -121 -167 -172 -55 -94 -75 -166 -78 -279 -4 -152 47 -279 158 -390 103
-102 204 -150 339 -161 40 -3 87 -10 105 -16 51 -15 98 -67 114 -124 13 -46
16 -198 5 -229 -5 -10 -100 -13 -499 -14 -271 0 -511 -2 -533 -5 -35 -3 -131
-18 -145 -21 -3 -1 -18 -5 -35 -9 -127 -32 -261 -89 -375 -160 -36 -22 -67
-43 -70 -46 -3 -3 -27 -23 -55 -45 -48 -38 -149 -138 -188 -185 -75 -91 -194
-306 -213 -386 -4 -16 -10 -33 -14 -39 -4 -5 -11 -23 -14 -40 -9 -45 -15 -72
-21 -97 -10 -44 -15 -94 -20 -194 -4 -80 -1 -116 15 -179 41 -160 145 -290
288 -360 l59 -29 2 -60 c6 -183 27 -408 45 -486 3 -14 8 -36 10 -50 4 -25 35
-166 40 -185 2 -5 6 -23 11 -40 52 -206 187 -506 310 -689 22 -32 45 -66 50
-74 6 -9 17 -25 27 -36 9 -12 43 -55 76 -97 83 -103 412 -433 412 -412 0 2 10
-6 23 -17 66 -63 512 -380 533 -380 3 0 17 -8 32 -19 54 -37 187 -116 191
-113 2 2 7 0 10 -5 3 -6 31 -23 61 -40 105 -57 315 -174 330 -183 83 -50 148
-74 201 -73 61 2 61 2 264 107 239 124 335 177 353 194 7 6 17 12 22 12 15 0
153 84 324 196 49 33 96 64 105 69 30 19 276 202 304 226 16 13 49 42 75 64
183 154 416 422 536 616 33 52 66 105 75 119 8 14 16 32 18 40 1 8 7 16 12 18
6 2 11 8 11 14 0 5 17 47 39 92 21 44 44 99 51 121 7 22 16 45 20 50 4 6 17
44 30 85 25 79 26 82 34 118 3 12 7 26 10 30 3 5 8 24 11 43 3 19 8 41 10 49
2 8 7 27 10 43 3 15 8 39 11 55 3 15 7 38 9 52 2 14 4 25 5 25 1 0 3 16 5 35
3 19 7 53 10 75 10 76 13 120 20 248 4 70 8 134 9 141 3 23 27 46 47 46 9 0
24 6 31 13 7 6 25 18 40 26 23 12 81 66 134 124 33 38 83 144 100 216 11 45 8
243 -5 321 -12 74 -78 300 -91 310 -3 3 -12 21 -20 40 -8 19 -29 58 -47 87
-18 29 -33 56 -33 62 0 5 -3 11 -7 13 -5 2 -27 29 -51 61 -73 98 -192 210
-302 284 -42 28 -222 127 -227 125 -3 -2 -6 -1 -88 27 -33 11 -73 23 -90 27
-16 4 -32 8 -35 9 -17 4 -111 19 -140 21 -19 2 -261 4 -537 5 l-503 1 0 26
c-1 208 -12 348 -34 447 -64 295 -245 570 -496 755 -47 34 -92 65 -100 68 -8
3 -23 12 -32 20 -10 8 -18 12 -18 8 0 -3 -12 2 -27 11 -15 10 -41 23 -58 29
-16 7 -54 21 -83 32 -46 18 -147 46 -206 58 -56 11 -272 25 -279 18z m285
-395 c137 -37 272 -112 393 -218 43 -38 104 -109 98 -115 -4 -3 -2 -6 4 -6 19
0 119 -183 132 -242 1 -4 8 -26 16 -48 13 -36 21 -76 31 -150 3 -22 7 -236 5
-281 -1 -15 -21 -17 -181 -17 -160 0 -180 2 -180 17 -6 210 -9 269 -14 286 -3
11 -9 36 -14 55 -25 101 -120 227 -219 292 -86 57 -176 86 -283 92 -105 6
-169 50 -194 136 -24 82 19 175 98 211 54 24 193 19 308 -12z m2109 -1453
c176 -30 357 -124 485 -251 64 -63 144 -164 144 -182 0 -6 7 -16 15 -23 20
-16 82 -181 98 -261 8 -36 15 -102 16 -147 3 -99 -19 -148 -82 -190 l-42 -27
-2229 -1 c-1509 -1 -2240 2 -2263 9 -42 13 -85 52 -108 96 -15 29 -17 51 -12
135 15 262 128 475 348 661 90 76 273 158 403 179 16 3 30 7 32 9 7 6 3157 0
3195 -7z m393 -1506 c-1 -56 -12 -204 -19 -250 -1 -14 -6 -45 -9 -70 -7 -54
-13 -87 -28 -160 -6 -30 -12 -59 -14 -65 -1 -5 -7 -30 -14 -55 -7 -25 -14 -52
-16 -60 -1 -8 -15 -46 -29 -85 -14 -38 -27 -77 -29 -86 -2 -8 -19 -47 -37 -85
-17 -38 -33 -75 -35 -81 -1 -7 -16 -35 -33 -63 -17 -28 -31 -52 -31 -55 0 -4
-42 -73 -72 -119 -37 -54 -103 -143 -119 -159 -11 -10 -19 -21 -19 -25 0 -4
-32 -41 -70 -82 -39 -41 -70 -78 -70 -82 0 -5 -4 -8 -8 -8 -5 0 -35 -26 -69
-57 -150 -144 -311 -269 -533 -414 -125 -81 -253 -159 -262 -159 -3 0 24 55
61 123 36 67 64 124 63 126 -2 2 0 7 5 10 8 6 19 28 81 161 108 233 181 418
265 670 52 154 68 206 91 295 3 11 19 72 36 135 46 173 52 218 35 267 -46 134
-225 167 -313 56 -15 -18 -27 -36 -28 -40 0 -5 -3 -15 -6 -23 -5 -13 -45 -176
-53 -220 -2 -8 -4 -15 -5 -15 -1 0 -3 -7 -5 -15 -19 -85 -143 -465 -192 -590
-33 -84 -42 -108 -43 -115 0 -3 -9 -21 -20 -40 -11 -20 -20 -40 -20 -45 0 -20
-173 -377 -250 -515 -50 -90 -160 -276 -183 -308 l-19 -28 -42 63 c-22 35 -47
74 -53 88 -12 24 -19 34 -54 90 -91 143 -282 544 -383 803 -49 126 -133 367
-141 405 -4 17 -48 173 -64 227 -5 17 -19 73 -31 125 -29 122 -57 172 -113
199 -77 37 -157 25 -212 -32 -71 -74 -70 -119 10 -407 25 -91 47 -173 50 -182
5 -24 110 -335 128 -383 8 -22 27 -71 42 -110 15 -38 38 -94 51 -123 13 -29
24 -55 24 -57 0 -16 221 -469 260 -534 12 -18 18 -36 15 -39 -3 -4 -9 -2 -13
3 -4 6 -27 21 -52 34 -101 55 -447 293 -516 356 -6 5 -40 34 -75 64 -67 57
-265 255 -311 312 -15 19 -48 61 -73 94 -25 33 -51 67 -58 75 -7 8 -18 26 -25
40 -7 14 -26 48 -43 75 -46 74 -120 220 -134 265 -1 3 -6 16 -12 30 -26 60
-43 108 -54 150 -6 25 -14 52 -17 60 -3 8 -7 20 -7 25 -1 6 -5 17 -8 25 -15
41 -51 231 -62 335 -14 121 -24 302 -18 308 2 2 904 3 2006 3 l2002 -1 -1 -55z"/>
</g>
</svg>
